<?xml version="1.0" encoding="UTF-8"?>
<svg id="Layer_1" xmlns="http://www.w3.org/2000/svg" version="1.1" viewBox="0 131 400 138">
  <!-- Generator: Adobe Illustrator 30.3.0, SVG Export Plug-In . SVG Version: 2.1.3 Build 182)  -->
  <defs>
    <style>
      .st0 {
        fill: #010101;
      }

      .st1 {
        fill: #020202;
      }

      .st2 {
        fill: #fff;
      }
    </style>
  </defs>
  <g>
    <rect class="st2" x="5" y="136.3" width="390" height="127.4" rx="21.5" ry="21.5"/>
    <path class="st0" d="M373.5,263.7H26.5c-11.9,0-21.5-9.7-21.5-21.5v-84.4c0-11.9,9.7-21.5,21.5-21.5h347c11.9,0,21.5,9.7,21.5,21.5v84.4c0,11.9-9.7,21.5-21.5,21.5ZM26.5,137.8c-11,0-20,9-20,20v84.4c0,11,9,20,20,20h347c11,0,20-9,20-20v-84.4c0-11-9-20-20-20H26.5Z"/>
  </g>
  <g>
    <g>
      <g>
        <path class="st1" d="M125.2,208.7l-3.6,10.9h-4.6l11.8-34.7h5.4l11.8,34.7h-4.8l-3.7-10.9h-12.3ZM136.6,205.2l-3.4-10c-.8-2.3-1.3-4.3-1.8-6.3h-.1c-.5,2.1-1.1,4.2-1.8,6.3l-3.4,10h10.5Z"/>
        <path class="st1" d="M146.4,219.9h-5.5l-3.7-10.9h-11.8l-3.6,10.9h-5.3l12-35.3h5.9l12.1,35.3h0ZM141.4,219.2h4.1l-11.6-34h-4.9l-11.6,34h4l3.6-10.9h12.8l3.7,10.9h-.1ZM137,205.5h-11.3l3.5-10.5c.6-1.8,1.1-3.8,1.7-6.3v-.2h.7l.2.6c.5,1.9,1,3.8,1.7,5.9l3.5,10.4h0ZM126.6,204.8h9.6l-3.3-9.6c-.6-1.9-1.1-3.6-1.5-5.3-.5,2-1,3.7-1.5,5.3,0,0-3.3,9.6-3.3,9.6Z"/>
      </g>
      <g>
        <path class="st1" d="M150.8,202.8c0-3.2-.1-5.8-.2-8.1h4.1l.2,4.3h.1c1.9-3,4.8-4.8,8.9-4.8,6,0,10.6,5.1,10.6,12.7s-5.5,13.4-11.3,13.4-6.2-1.4-7.7-3.9h-.1v13.5h-4.5v-27h-.1ZM155.2,209.4c0,.7.1,1.3.2,1.9.8,3.1,3.6,5.3,6.8,5.3,4.8,0,7.6-3.9,7.6-9.6s-2.6-9.3-7.4-9.3-6,2.2-6.8,5.6c-.2.6-.3,1.2-.3,1.9v4.3h-.1Z"/>
        <path class="st1" d="M155.6,230.1h-5.1v-27.3c0-3.1,0-5.6-.2-8.1v-.3h4.7l.2,3.7c2-2.8,5-4.3,8.7-4.3s5.8,1.3,7.8,3.6,3.1,5.7,3.1,9.4-1.2,7.8-3.5,10.3c-2.1,2.2-5,3.4-8.1,3.4s-5.8-1.2-7.5-3.3v13h0ZM151.1,229.4h3.8v-13.5h.6v.2c1.5,2.4,4.3,3.8,7.5,3.8,5.5,0,11-4,11-13.1s-1-6.7-2.9-9c-1.9-2.2-4.4-3.4-7.3-3.4s-6.7,1.6-8.6,4.7v.2h-.7l-.2-4.3h-3.4c.1,2.4.2,4.8.2,7.8v26.6h0ZM162.2,216.9c-3.4,0-6.2-2.2-7.1-5.5h0c-.1-.6-.2-1.2-.2-1.9v-4.3c0-.7.2-1.4.3-1.9.9-3.4,3.8-5.8,7.2-5.8s4.4,1,5.8,2.9c1.3,1.7,2,4.1,2,6.7s-.7,5.4-2.1,7.2c-1.4,1.8-3.4,2.8-5.8,2.8v-.2ZM155.8,211.2c.8,3,3.4,5,6.5,5,4.5,0,7.2-3.6,7.2-9.3s-.7-4.7-1.8-6.3c-1.3-1.7-3.1-2.6-5.2-2.6s-5.7,2.2-6.5,5.4c-.1.5-.3,1.2-.3,1.8v4.3c0,.6,0,1.2.2,1.8h0Z"/>
      </g>
      <g>
        <path class="st1" d="M180,202.8c0-3.2-.1-5.8-.2-8.1h4.1l.2,4.3h.1c1.9-3,4.8-4.8,8.9-4.8,6,0,10.6,5.1,10.6,12.7s-5.5,13.4-11.3,13.4-6.2-1.4-7.7-3.9h-.1v13.5h-4.5v-27h-.1ZM184.5,209.4c0,.7.1,1.3.2,1.9.8,3.1,3.6,5.3,6.8,5.3,4.8,0,7.6-3.9,7.6-9.6s-2.6-9.3-7.4-9.3-6,2.2-6.8,5.6c-.2.6-.3,1.2-.3,1.9v4.3h-.1Z"/>
        <path class="st1" d="M184.8,230.1h-5.1v-27.3c0-3.1,0-5.6-.2-8.1v-.3h4.7l.2,3.7c2-2.8,5-4.3,8.7-4.3s5.8,1.3,7.8,3.6,3.1,5.7,3.1,9.4-1.2,7.8-3.5,10.3c-2.1,2.2-5,3.4-8.1,3.4s-5.8-1.2-7.5-3.3v13h0ZM180.4,229.4h3.8v-13.5h.6v.2c1.5,2.4,4.3,3.8,7.5,3.8,5.5,0,11-4,11-13.1s-1-6.7-2.9-9c-1.9-2.2-4.4-3.4-7.3-3.4s-6.7,1.6-8.6,4.7v.2h-.7l-.2-4.3h-3.4c.1,2.4.2,4.8.2,7.8v26.6h0ZM191.5,216.9c-3.4,0-6.2-2.2-7.1-5.5h0c-.1-.6-.2-1.2-.2-1.9v-4.3c0-.7.2-1.4.3-1.9.9-3.4,3.8-5.8,7.2-5.8s4.4,1,5.8,2.9c1.3,1.7,2,4.1,2,6.7s-.7,5.4-2.1,7.2c-1.4,1.8-3.4,2.8-5.8,2.8v-.2ZM185,211.2c.8,3,3.4,5,6.5,5,4.5,0,7.2-3.6,7.2-9.3s-.7-4.7-1.8-6.3c-1.3-1.7-3.1-2.6-5.2-2.6s-5.7,2.2-6.5,5.4c-.1.5-.3,1.2-.3,1.8v4.3c0,.6,0,1.2.2,1.8h0Z"/>
      </g>
      <g>
        <path class="st1" d="M219.8,214.1c2,1.2,4.9,2.3,8,2.3,4.6,0,7.3-2.4,7.3-5.9s-1.9-5.1-6.5-6.9c-5.7-2-9.2-4.9-9.2-9.8s4.5-9.4,11.2-9.4,6.1.8,7.7,1.7l-1.2,3.7c-1.1-.6-3.4-1.6-6.6-1.6-4.7,0-6.5,2.8-6.5,5.2s2.1,4.8,6.9,6.7c5.9,2.3,8.9,5.1,8.9,10.2s-4,10-12.1,10-7-1-8.9-2.2l1.1-3.8v-.2Z"/>
        <path class="st1" d="M227.5,220.4c-3.3,0-7.1-1-9-2.3h-.2c0-.1,1.3-4.5,1.3-4.5l.4.2c2.3,1.4,5.2,2.2,7.9,2.2,4.3,0,6.9-2.1,6.9-5.6s-1.7-4.8-6.3-6.6c-6.4-2.3-9.4-5.5-9.4-10.1s1.1-5.2,3.2-7c2.1-1.8,5-2.8,8.3-2.8s6.7,1.1,7.8,1.7h.2c0,.1-1.4,4.4-1.4,4.4l-.3-.2c-1.3-.7-3.6-1.6-6.4-1.6s-6.2,1.5-6.2,4.9,1.6,4.4,6.7,6.4c3.2,1.2,5.3,2.5,6.7,4.1,1.6,1.7,2.3,3.8,2.3,6.4s-1.1,5.4-3.1,7.2c-2.2,2-5.4,3.1-9.4,3.1h0ZM219,217.7c1.9,1.2,5.4,2,8.5,2s6.8-1,8.9-2.9c1.9-1.7,2.9-4.1,2.9-6.8,0-4.7-2.5-7.5-8.6-9.9-4.6-1.8-7.1-3.4-7.1-7s.6-2.7,1.6-3.7,3-1.8,5.3-1.8,5,.8,6.4,1.5l1-3c-1.2-.6-3.5-1.5-7.3-1.5-6.4,0-10.9,3.7-10.9,9.1s2.8,7.4,8.9,9.5c2.5,1,4.1,1.9,5.1,3,1.1,1.1,1.6,2.5,1.6,4.2,0,3.8-3,6.2-7.6,6.2s-5.5-.8-7.8-2.1l-.9,3.1h0Z"/>
      </g>
      <g>
        <path class="st1" d="M250.9,187.5v7.2h6.5v3.4h-6.5v13.4c0,3.1.9,4.8,3.4,4.8s2.1-.2,2.6-.3l.2,3.4c-.9.4-2.3.6-4,.6s-3.8-.7-4.9-1.9c-1.3-1.3-1.7-3.6-1.7-6.5v-13.6h-3.9v-3.4h3.9v-6l4.4-1.2h0Z"/>
        <path class="st1" d="M253.1,220.4c-2.2,0-4-.7-5.1-2-1.3-1.3-1.8-3.4-1.8-6.7v-13.3h-3.9v-4.1h3.9v-5.9l5.1-1.4v7.3h6.5v4.1h-6.5v13.1c0,3.2.9,4.5,3.1,4.5s2-.2,2.5-.3h.4c0-.1.2,3.9.2,3.9h-.2c-1,.5-2.5.7-4.1.7h0ZM243,197.8h3.9v13.9c0,3.1.5,5.1,1.7,6.3h0c1,1.2,2.6,1.8,4.6,1.8s2.8-.2,3.7-.5l-.2-2.8c-.5.1-1.3.2-2.3.2-3.3,0-3.7-2.9-3.7-5.2v-13.8h6.5v-2.8h-6.5v-7.1l-3.8,1v6h-3.9v3Z"/>
      </g>
      <g>
        <path class="st1" d="M284.7,206.9c0,9.2-6.4,13.2-12.4,13.2s-11.9-4.9-11.9-12.8,5.5-13.2,12.4-13.2,12,5.2,12,12.8h-.1ZM265,207.2c0,5.5,3.1,9.6,7.6,9.6s7.6-4.1,7.6-9.7-2.1-9.6-7.5-9.6-7.7,4.9-7.7,9.7Z"/>
        <path class="st1" d="M272.3,220.5c-7.2,0-12.3-5.4-12.3-13.1s1.3-7.5,3.7-10c2.3-2.3,5.5-3.6,9-3.6s6.7,1.3,8.9,3.7c2.2,2.4,3.4,5.7,3.4,9.5s-1.4,7.9-4,10.3c-2.3,2.1-5.4,3.2-8.7,3.2h0ZM272.7,194.4c-3.4,0-6.4,1.2-8.5,3.4-2.3,2.3-3.5,5.6-3.5,9.5s1.2,6.9,3.4,9.1c2.1,2.2,5,3.4,8.3,3.4s6.1-1.1,8.2-3.1c2.5-2.3,3.8-5.7,3.8-9.8,0-7.5-4.7-12.5-11.7-12.5h0ZM272.5,217.1c-2.2,0-4.3-1-5.7-2.9-1.4-1.8-2.2-4.3-2.2-7,0-5,2.5-10,8-10s4.6,1.2,6,3.4c1.1,1.8,1.8,4.1,1.8,6.5s-.8,5.3-2.2,7.1c-1.4,1.8-3.5,2.9-5.7,2.9h0ZM272.6,197.8c-5.1,0-7.3,4.7-7.3,9.4s3,9.3,7.2,9.3,3.8-.9,5.2-2.6c1.3-1.7,2.1-4.1,2.1-6.7s-.6-4.5-1.7-6.2c-.9-1.4-2.6-3.1-5.5-3.1h0Z"/>
      </g>
      <g>
        <path class="st1" d="M290.4,202.4c0-2.9,0-5.5-.2-7.8h4l.2,4.9h.2c1.1-3.3,3.9-5.5,6.9-5.5s.9,0,1.3.2v4.3c-.5-.1-.9-.2-1.5-.2-3.2,0-5.5,2.4-6.1,5.8-.1.6-.2,1.3-.2,2.1v13.3h-4.5v-17.1h0Z"/>
        <path class="st1" d="M295.2,219.9h-5.1v-17.5c0-3.2,0-5.6-.2-7.8v-.3h4.6v4.1c1.5-2.9,4-4.7,6.9-4.7s.9,0,1.4.2h.2v5h-.4c-.5-.2-.9-.2-1.5-.2-1.4,0-2.8.5-3.8,1.5s-1.7,2.4-2,4c0,.6-.2,1.3-.2,2.1v13.6h.1ZM290.8,219.2h3.8v-13c0-.8.1-1.5.2-2.2.7-3.7,3.2-6.1,6.4-6.1s.8,0,1.2,0v-3.6h-1c-2.9,0-5.5,2.1-6.6,5.2v.2h-.8l-.2-4.9h-3.3c.1,2.1.2,4.4.2,7.5v16.8h0Z"/>
      </g>
      <g>
        <path class="st1" d="M309.3,207.9c.1,6.1,4,8.6,8.5,8.6s5.2-.6,6.9-1.3l.8,3.2c-1.6.7-4.3,1.5-8.3,1.5-7.7,0-12.3-5-12.3-12.6s4.4-13.4,11.7-13.4,10.3,7.2,10.3,11.7-.1,1.6-.2,2.1h-17.5v.2ZM322.6,204.7c0-2.9-1.2-7.4-6.3-7.4s-6.6,4.2-6.9,7.4h13.2,0Z"/>
        <path class="st1" d="M317.2,220.4c-3.8,0-7-1.2-9.2-3.6-2.2-2.3-3.3-5.5-3.3-9.3s1.1-7.3,3.2-9.7c2.2-2.6,5.2-4,8.8-4s6.6,1.5,8.5,4.3c1.9,2.9,2.2,6.4,2.2,7.8s0,1.5-.1,1.9v.5h-17.5c.1,2.6.9,4.7,2.5,6.1,1.4,1.3,3.4,1.9,5.7,1.9,3.3,0,5.2-.6,6.8-1.3h.4c0-.1.9,3.7.9,3.7h-.2c-1.6.8-4.3,1.7-8.4,1.7h-.3ZM316.6,194.4c-3.4,0-6.3,1.3-8.3,3.8-2,2.4-3,5.7-3,9.3s1.1,6.7,3.2,8.9,5.1,3.4,8.8,3.4,6.3-.7,7.9-1.4l-.6-2.6c-1.5.6-3.5,1.2-6.7,1.2s-4.6-.7-6.1-2.1c-1.8-1.6-2.7-3.9-2.7-6.9v-.3h17.5c0-.5.1-1.1.1-1.8,0-1.3-.2-4.6-2-7.4-1.8-2.7-4.4-4-7.9-4h-.2ZM322.9,205h-13.9v-.4c.5-3.8,2.9-7.6,7.3-7.6s3.4.6,4.5,1.7c2,2,2.1,5.1,2.1,5.9v.3h0ZM309.7,204.4h12.5c0-1.1-.3-3.5-1.9-5.2-1-1-2.4-1.5-4.1-1.5-4.4,0-6.2,4.1-6.6,6.7h.1Z"/>
      </g>
    </g>
    <g>
      <g>
        <path class="st1" d="M85,211.9c-3.2,9.3-9.8,17.5-15.8,17.5s-3.3-2.4-8.3-2.4-7.1,2.4-9.5,2.4c-8.3,0-17.8-16-17.8-28.5s8.3-17.8,15.4-17.8,8,2.4,11.9,2.4,6.9-2.4,10.7-2.4,8.4,1.7,11.4,5.4c-4,2.3-6.7,6.5-6.7,11.2s3.6,10.3,8.7,12.2h0Z"/>
        <path class="st1" d="M69.2,229.5c-1,0-1.7-.4-2.6-.9-1.2-.7-2.7-1.5-5.7-1.5s-4.9.8-6.5,1.5c-1.1.5-2,.9-3,.9-2,0-4.2-.9-6.3-2.7-2-1.7-4-4-5.8-6.9-3.6-5.9-5.8-13-5.8-19s1.8-10.4,5.1-13.6c2.8-2.7,6.6-4.3,10.5-4.3s3.9.6,5.9,1.2c2,.6,4,1.2,6,1.2s3.7-.6,5.4-1.2c1.7-.6,3.4-1.2,5.3-1.2s4.2.5,6.1,1.3c2.1.9,3.9,2.3,5.4,4.1h0c-2,1.2-3.7,2.8-4.8,4.8-1.2,2-1.8,4.2-1.8,6.5s.8,5.2,2.4,7.4c1.5,2.1,3.7,3.7,6.2,4.7h0c-1.6,4.8-4.1,9.1-6.9,12.4-3,3.5-6.1,5.3-9,5.3h0ZM60.9,227c3,0,4.5.8,5.8,1.5.8.5,1.6.9,2.5.9,2.8,0,5.9-1.8,8.8-5.3,2.8-3.2,5.2-7.5,6.8-12.1-2.5-1-4.6-2.6-6.2-4.7-1.6-2.2-2.4-4.8-2.4-7.5s.6-4.6,1.9-6.6c1.2-1.9,2.8-3.5,4.8-4.7-2.8-3.3-6.9-5.3-11.3-5.3s-3.6.6-5.3,1.2c-1.7.6-3.4,1.2-5.4,1.2s-4-.6-6-1.2c-1.9-.6-4-1.2-5.9-1.2-3.8,0-7.6,1.5-10.3,4.2-3.3,3.2-5,7.9-5,13.5s2.2,13,5.8,18.9c3.7,6,8.1,9.5,11.9,9.5s1.9-.4,3-.9c1.6-.7,3.5-1.5,6.5-1.5h0Z"/>
      </g>
      <g>
        <path class="st1" d="M69.2,177.1c.8-1,1.5-2.2,1.9-3.5.7-1.9.9-4,.5-6,0-.1-1.9.3-2.1.3-1,.3-2,.7-2.9,1.1-4.1,2.1-7.9,6.1-8.2,10.8,0,.6,0,1.3,0,1.9h1.5c3.6-.3,7-2,9.2-4.8v.2Z"/>
        <path class="st1" d="M58.9,182.1q-.4,0-.4-.1c-.2-.7-.2-1.4,0-2,0-2.2,1.1-4.5,2.7-6.5,1.4-1.8,3.4-3.3,5.5-4.4,1-.5,2-.9,3-1.1,0,0,1.9-.5,2.1-.3h0c.5,2.3,0,4.6-.5,6-.4,1.3-1.1,2.5-2,3.5h0c-2.2,2.8-5.6,4.5-9.2,4.8h-1.1ZM58.6,181.9h1.3c3.6-.3,6.9-2,9.1-4.7h0c.8-1.1,1.5-2.2,1.9-3.5.5-1.4,1-3.6.5-5.9-.3,0-1.7.3-2,.4-1,.3-2,.7-2.9,1.1-2.1,1.1-4.1,2.6-5.5,4.4-1.6,2-2.5,4.2-2.6,6.4,0,.5,0,1.2,0,1.9h0Z"/>
      </g>
    </g>
  </g>
</svg>