<?xml version="1.0" encoding="UTF-8"?>
<svg id="Layer_1" xmlns="http://www.w3.org/2000/svg" version="1.1" viewBox="0 0 400 138">
  <!-- Generator: Adobe Illustrator 30.3.0, SVG Export Plug-In . SVG Version: 2.1.3 Build 182)  -->
  <defs>
    <style>
      .st0 {
        fill: #010101;
      }

      .st1 {
        fill: #ef4150;
      }

      .st2 {
        fill: #ffc516;
      }

      .st3 {
        fill: #fff;
      }

      .st4 {
        fill: #00a85d;
      }

      .st5 {
        fill: #00baf2;
      }
    </style>
  </defs>
  <rect class="st3" x="5" y="5.3" width="390" height="127.4" rx="21.5" ry="21.5"/>
  <g>
    <g>
      <g>
        <path class="st4" d="M36.3,38.6l36.9,20.1-10.3,10-30.2-29.6c.9-.9,2.4-1.2,3.7-.5h0Z"/>
        <path class="st5" d="M62.9,68.8l-30.6,29.7c-.3-.5-.6-1.1-.6-1.8v-55.3c0-.9.4-1.6.9-2.2l30.2,29.6h0Z"/>
        <path class="st2" d="M87,66.3c2.2,1.2,2.2,4.3,0,5.4l-13.5,7.4-10.6-10.3,10.3-10,13.8,7.5h0Z"/>
        <path class="st1" d="M73.5,79.1l-37.1,20.3c-1.5.8-3.2.3-4-.9l30.6-29.7,10.6,10.3h0Z"/>
      </g>
      <g>
        <g>
          <path class="st0" d="M143.6,82c-2,.7-6,1.9-10.6,1.9s-9.6-1.3-13-4.6c-3-2.9-4.8-7.5-4.8-12.9,0-10.3,7.1-17.9,18.8-17.9s7.1.9,8.6,1.6l-1.1,3.7c-1.9-.8-4.2-1.5-7.7-1.5-8.4,0-13.9,5.2-13.9,13.9s5.3,14,13.4,14,4.9-.4,6-.9v-10.3h-7v-3.6h11.4v16.7h0Z"/>
          <path class="st0" d="M132.9,84.3c-5.6,0-9.9-1.5-13.2-4.7-3.1-3-4.9-7.8-4.9-13.1s1.8-9.8,5.1-13.1c3.4-3.4,8.3-5.2,13.9-5.2s6.3.4,8.8,1.6h.2c0,.1-1.3,4.4-1.3,4.4h-.3c-2.9-1.4-5.6-1.6-7.5-1.6-8.4,0-13.6,5.2-13.6,13.6s5,13.7,13,13.7,5-.5,5.6-.8v-9.8h-7v-4.2h12.1v17.2h-.2c-2.4,1-6.3,2-10.8,2h.1ZM133.9,48.9c-5.5,0-10.2,1.7-13.5,5s-4.9,7.5-5,12.6c0,5.1,1.7,9.8,4.7,12.7,3.2,3,7.3,4.5,12.7,4.5s7.9-1,10.3-1.8v-16.1h-10.8v3h7v10.9h-.2c-1.2.7-3.4,1-6.1,1-4.1,0-7.5-1.3-9.9-3.8-2.5-2.5-3.7-6.2-3.7-10.5s1.3-7.9,3.9-10.5c2.5-2.5,6.1-3.8,10.4-3.8s5.2.4,7.5,1.4l.9-3c-1.6-.7-4.6-1.4-8.3-1.4v-.2Z"/>
        </g>
        <g>
          <path class="st0" d="M173.1,70.9c0,9.2-6.4,13.2-12.4,13.2s-11.9-4.9-11.9-12.8,5.5-13.2,12.3-13.2,12,5.2,12,12.8h0ZM153.3,71.2c0,5.5,3.1,9.6,7.6,9.6s7.6-4.1,7.6-9.7-2.1-9.6-7.5-9.6-7.7,4.9-7.7,9.7h0Z"/>
          <path class="st0" d="M160.7,84.5c-7.2,0-12.3-5.4-12.3-13.1s1.3-7.5,3.7-10c2.3-2.3,5.5-3.6,9-3.6s6.7,1.3,8.9,3.7,3.4,5.7,3.4,9.5-1.4,7.9-4,10.3c-2.3,2.1-5.4,3.2-8.7,3.2h0ZM161.1,58.4c-3.4,0-6.4,1.2-8.5,3.4-2.3,2.3-3.5,5.6-3.5,9.5s1.2,6.9,3.3,9.1c2.1,2.2,5,3.4,8.3,3.4s6.1-1.1,8.2-3.1c2.5-2.3,3.8-5.7,3.8-9.8,0-7.5-4.7-12.5-11.7-12.5h0ZM160.9,81.1c-2.2,0-4.2-1-5.7-2.9-1.4-1.8-2.2-4.3-2.2-7,0-5,2.5-10,8-10s4.6,1.2,6,3.3c1.1,1.8,1.8,4.1,1.8,6.5s-.8,5.3-2.2,7.1-3.5,2.9-5.7,2.9h0ZM161,61.8c-5.1,0-7.3,4.7-7.3,9.3s3,9.2,7.2,9.2,3.8-.9,5.1-2.6c1.3-1.7,2.1-4.1,2.1-6.7s-.6-4.5-1.7-6.2c-.9-1.4-2.6-3.1-5.5-3.1h0Z"/>
        </g>
        <g>
          <path class="st0" d="M201.3,70.9c0,9.2-6.4,13.2-12.4,13.2s-11.9-4.9-11.9-12.8,5.5-13.2,12.3-13.2,12,5.2,12,12.8h0ZM181.5,71.2c0,5.5,3.1,9.6,7.6,9.6s7.6-4.1,7.6-9.7-2.1-9.6-7.5-9.6-7.7,4.9-7.7,9.7h0Z"/>
          <path class="st0" d="M188.9,84.5c-7.2,0-12.3-5.4-12.3-13.1s1.3-7.5,3.7-10c2.3-2.3,5.5-3.6,9-3.6s6.7,1.3,8.9,3.7,3.4,5.7,3.4,9.5-1.4,7.9-4,10.3c-2.3,2.1-5.4,3.2-8.7,3.2h0ZM189.3,58.4c-3.4,0-6.4,1.2-8.5,3.4-2.3,2.3-3.5,5.6-3.5,9.5s1.2,6.9,3.3,9.1c2.1,2.2,5,3.4,8.3,3.4s6.1-1.1,8.2-3.1c2.5-2.3,3.8-5.7,3.8-9.8,0-7.5-4.7-12.5-11.7-12.5h0ZM189.1,81.1c-2.2,0-4.2-1-5.7-2.9-1.4-1.8-2.2-4.3-2.2-7,0-5,2.5-10,8-10s4.6,1.2,6,3.3c1.1,1.8,1.8,4.1,1.8,6.5s-.8,5.3-2.2,7.1-3.5,2.9-5.7,2.9h0ZM189.2,61.8c-5.1,0-7.3,4.7-7.3,9.3s3,9.2,7.2,9.2,3.8-.9,5.1-2.6c1.3-1.7,2.1-4.1,2.1-6.7s-.6-4.5-1.7-6.2c-.9-1.4-2.6-3.1-5.5-3.1h0Z"/>
        </g>
        <g>
          <path class="st0" d="M228.4,58.7c-.1,1.8-.2,3.8-.2,6.8v14.5c0,5.7-1.1,9.2-3.5,11.4-2.4,2.3-5.9,3-9.1,3s-6.3-.7-8.3-2.1l1.1-3.4c1.6,1,4.2,2,7.3,2,4.6,0,8-2.4,8-8.7v-2.8h-.1c-1.4,2.3-4.1,4.2-7.9,4.2-6.2,0-10.6-5.2-10.6-12.1s5.5-13.2,11.2-13.2,6.7,2.3,7.8,4.3h.1l.2-3.8h4ZM223.8,68.5c0-.8,0-1.4-.3-2.1-.8-2.6-3-4.8-6.3-4.8s-7.4,3.7-7.4,9.4,2.5,8.9,7.4,8.9,5.3-1.7,6.3-4.6c.3-.8.4-1.6.4-2.4v-4.5h0Z"/>
          <path class="st0" d="M215.6,94.6c-3.3,0-6.5-.8-8.5-2.1h-.2c0-.1,1.3-4.2,1.3-4.2l.3.2c.9.6,3.4,1.9,7.1,1.9,6.4,0,7.7-4.6,7.7-8.4v-1.9c-1.7,2.3-4.5,3.6-7.7,3.6s-5.9-1.3-7.9-3.6-3.1-5.4-3.1-8.9,1.2-7.5,3.6-10c2.1-2.3,5-3.5,8-3.5,4.3,0,6.6,2.2,7.6,3.7l.2-3.2h4.6v.3c-.1,1.9-.2,3.8-.2,6.8v14.5c0,5.8-1.1,9.3-3.7,11.6-1.5,1.4-4.3,3.1-9.3,3.1h.2ZM207.7,92.1c1.9,1.1,4.9,1.9,7.9,1.9,4.7,0,7.4-1.6,8.8-2.9,2.4-2.1,3.4-5.6,3.4-11.1v-14.5c0-2.8,0-4.7.2-6.5h-3.3l-.2,3.8h-.6v-.2c-.9-1.5-3-4.1-7.6-4.1s-5.5,1.2-7.5,3.3c-2.2,2.4-3.4,5.7-3.4,9.6s1,6.3,2.9,8.4c1.9,2.2,4.5,3.4,7.4,3.4s6.1-1.5,7.6-4v-.2h.7v3.1c0,3.1-.8,5.4-2.4,6.9-1.4,1.4-3.4,2.1-6,2.1s-5.1-.7-7.1-1.8l-.9,2.8h.1ZM217.1,80.3c-2.4,0-4.4-1-5.8-2.8-1.2-1.6-1.9-3.9-1.9-6.5,0-5.8,3.1-9.7,7.7-9.7s5.9,2.6,6.6,5c.2.7.3,1.5.3,2.2v4.5c0,.9-.1,1.8-.4,2.5-1,2.9-3.6,4.8-6.6,4.8h0ZM217.2,62c-4.2,0-7.1,3.7-7.1,9.1s.6,4.6,1.8,6.1c1.2,1.6,3.1,2.5,5.3,2.5s5.1-1.7,6-4.4c.2-.7.3-1.5.3-2.3v-4.5c0-.9,0-1.4-.2-2-.7-2.2-2.6-4.6-6-4.6h-.1Z"/>
        </g>
        <g>
          <path class="st0" d="M235.7,47.1h4.5v36.5h-4.5v-36.5Z"/>
          <path class="st0" d="M240.6,83.9h-5.2v-37.2h5.2v37.2ZM236.1,83.3h3.9v-35.9h-3.9v35.9h0Z"/>
        </g>
        <g>
          <path class="st0" d="M250.4,72c.1,6.1,4,8.6,8.5,8.6s5.2-.6,6.9-1.3l.8,3.2c-1.6.7-4.3,1.5-8.3,1.5-7.7,0-12.2-5-12.2-12.5s4.4-13.4,11.7-13.4,10.3,7.1,10.3,11.7-.1,1.6-.2,2.1h-17.5,0ZM263.7,68.7c0-2.9-1.2-7.4-6.3-7.4s-6.6,4.2-6.9,7.4h13.2,0Z"/>
          <path class="st0" d="M258.3,84.4c-3.8,0-7-1.2-9.2-3.6-2.2-2.3-3.3-5.5-3.3-9.3s1.1-7.3,3.2-9.7c2.2-2.6,5.2-4,8.8-4s6.6,1.5,8.5,4.3c1.9,2.9,2.1,6.4,2.1,7.8s0,1.5-.1,1.9v.5h-17.5c.1,2.6.9,4.7,2.5,6.1,1.4,1.3,3.4,1.9,5.7,1.9,3.3,0,5.2-.6,6.8-1.3h.4c0-.1.9,3.7.9,3.7h-.2c-1.6.8-4.3,1.7-8.4,1.7h-.2ZM257.8,58.4c-3.4,0-6.3,1.3-8.3,3.8-2,2.4-3,5.7-3,9.3s1.1,6.7,3.2,8.9c2.1,2.2,5.1,3.4,8.8,3.4s6.3-.7,7.9-1.4l-.6-2.6c-1.5.6-3.5,1.2-6.7,1.2s-4.6-.7-6.1-2.1c-1.8-1.6-2.7-3.9-2.7-6.8v-.3h17.5c0-.4.1-1.1.1-1.8,0-1.3-.2-4.6-2-7.4-1.8-2.7-4.4-4-7.9-4l-.2-.2ZM264,69h-13.9v-.4c.5-3.8,2.9-7.6,7.3-7.6s3.4.6,4.5,1.7c2,2,2.1,5.1,2.1,5.9v.3h0ZM250.8,68.4h12.5c0-1.1-.3-3.5-1.9-5.2-1-1-2.4-1.5-4.1-1.5-4.4,0-6.2,4.1-6.6,6.7h.1Z"/>
        </g>
        <g>
          <path class="st0" d="M284.7,49.3c2.2-.4,5-.7,8.6-.7s7.7,1,9.7,2.9c1.9,1.6,3,4.2,3,7.3s-.9,5.6-2.7,7.4c-2.4,2.5-6.2,3.8-10.6,3.8s-2.6,0-3.6-.3v13.9h-4.5v-34.2h.1ZM289.2,66c1,.3,2.2.4,3.7.4,5.4,0,8.7-2.6,8.7-7.4s-3.2-6.8-8.2-6.8-3.4.2-4.2.4v13.5h0Z"/>
          <path class="st0" d="M289.5,83.9h-5.1v-34.8h.3c2.7-.5,5.6-.7,8.6-.7,4.4,0,7.8,1,9.9,3,2,1.8,3.1,4.4,3.1,7.5s-.9,5.7-2.8,7.6c-2.4,2.5-6.2,3.9-10.8,3.9s-2.3,0-3.3-.2v13.8h0ZM285,83.3h3.8v-14h.4c1.1.4,2.4.4,3.5.4,4.4,0,8.1-1.3,10.4-3.7,1.7-1.8,2.6-4.2,2.6-7.2s-1-5.4-2.9-7c-2.1-1.9-5.3-2.8-9.5-2.8s-5.7.2-8.3.6v33.7ZM292.9,66.7c-1.6,0-2.8-.1-3.8-.4h-.2v-14h.2c.9-.3,2.5-.4,4.3-.4,5.4,0,8.5,2.6,8.5,7.1s-.8,4.4-2.4,5.7-3.8,2-6.6,2h0ZM289.5,65.8c.9.2,2,.3,3.4.3,5.3,0,8.4-2.6,8.4-7.1s-2.8-6.5-7.9-6.5-3,.1-3.9.3v13Z"/>
        </g>
        <g>
          <path class="st0" d="M311.6,47.1h4.5v36.5h-4.5v-36.5Z"/>
          <path class="st0" d="M316.5,83.9h-5.2v-37.2h5.2v37.2ZM312,83.3h3.9v-35.9h-3.9v35.9h0Z"/>
        </g>
        <g>
          <path class="st0" d="M337.6,83.6l-.4-3.1h-.2c-1.4,2-4.1,3.7-7.6,3.7-5,0-7.6-3.5-7.6-7.1,0-6,5.3-9.3,15-9.3v-.5c0-2.1-.6-5.8-5.7-5.8s-4.7.7-6.5,1.9l-1-3c2.1-1.3,5-2.2,8.2-2.2,7.6,0,9.5,5.2,9.5,10.2v9.3c0,2.2.1,4.3.4,6h-4.1,0ZM336.9,70.9c-4.9-.1-10.5.8-10.5,5.6s2,4.3,4.3,4.3,5.3-2.1,6-4.2c.2-.5.3-1,.3-1.4v-4.3h0Z"/>
          <path class="st0" d="M329.4,84.5c-2.4,0-4.5-.8-5.9-2.3-1.3-1.4-2-3.2-2-5.1s.8-4.3,2.3-5.8c2.4-2.4,6.8-3.7,12.6-3.7v-.2c0-3.6-1.8-5.4-5.3-5.4s-4.6.7-6.3,1.8l-.3.2-1.2-3.6h.2c2.2-1.6,5.3-2.4,8.4-2.4s6.2,1.1,7.8,3.4c1.3,1.7,1.9,4.2,1.9,7.2v9.3c0,2.5.1,4.4.4,5.9v.4h-4.7l-.3-2.8c-1.7,2.1-4.5,3.4-7.5,3.4v-.3ZM336.6,68.1c-5.7,0-10,1.2-12.3,3.5-1.4,1.4-2.1,3.2-2.1,5.4,0,3.3,2.3,6.8,7.3,6.8s5.8-1.3,7.3-3.6h0c0-.1.6-.1.6-.1l.4,3.1h3.4c-.2-1.5-.4-3.3-.4-5.6v-9.3c0-2.9-.6-5.1-1.8-6.8-1.5-2.1-4-3.1-7.3-3.1s-5.7.8-7.8,2l.8,2.4c1.8-1.1,4.1-1.7,6.3-1.7s4,.8,5,2.3c.6,1,1,2.3,1,3.8v.8h-.5.1ZM330.6,81.1c-2.8,0-4.6-1.8-4.6-4.6s.5-2.7,1.4-3.6c1.7-1.7,4.9-2.4,9.4-2.3h.3v4.6c0,.5,0,1-.3,1.5-.7,2-2.8,4.4-6.3,4.4h.1ZM336.2,71.2c-4,0-6.8.7-8.2,2.2-.8.8-1.2,1.9-1.2,3.1,0,1.9,1,4,3.9,4s5.1-2.1,5.7-3.9c.2-.5.2-.9.2-1.3v-4h-.4Z"/>
        </g>
        <g>
          <path class="st0" d="M349.8,58.7l5.5,14.7c.6,1.6,1.2,3.6,1.6,5.1h.1c.5-1.5,1-3.4,1.6-5.2l4.9-14.6h4.8l-6.8,17.7c-3.2,8.5-5.5,12.9-8.5,15.6-2.2,2-4.4,2.7-5.6,2.9l-1.1-3.8c1.1-.4,2.6-1.1,4-2.2,1.2-1,2.8-2.7,3.8-5,.2-.5.4-.8.4-1.1s-.1-.6-.3-1.2l-9.2-22.9h4.9,0Z"/>
          <path class="st0" d="M347.2,95.3l-1.3-4.4h.3c.6-.3,2.3-.9,3.8-2.2h0c1.5-1.2,2.9-3,3.7-4.9.2-.4.3-.7.3-.9s0-.5-.3-1.1l-9.4-23.4h5.6l5.5,14.9c.5,1.4,1,2.9,1.4,4.2,0-.3.2-.5.2-.8.3-1.1.7-2.4,1.1-3.5l5-14.8h5.5l-7,18.2c-3,8-5.3,12.8-8.6,15.7-2.6,2.3-5,2.9-5.7,3h-.3.2ZM346.6,91.3l1,3.2c1.3-.3,3.3-1.2,5.1-2.8,3.2-2.8,5.5-7.6,8.4-15.5l6.6-17.3h-4.1l-4.9,14.4c-.4,1.2-.8,2.4-1.1,3.5-.2.6-.3,1.2-.5,1.7v.2h-.7v-.2c-.5-1.4-1.1-3.4-1.7-5.1l-5.4-14.5h-4.2l9,22.5c.2.7.3,1,.3,1.3s-.2.7-.4,1.2c-1.3,2.9-3.1,4.6-3.9,5.2-1.1.9-2.4,1.7-3.8,2.2h.3Z"/>
        </g>
      </g>
    </g>
    <path class="st0" d="M373.5,132.7H26.5c-11.9,0-21.5-9.7-21.5-21.5V26.8C5,14.9,14.7,5.3,26.5,5.3h347c11.9,0,21.5,9.7,21.5,21.5v84.4c0,11.9-9.7,21.5-21.5,21.5ZM26.5,6.8C15.5,6.8,6.5,15.8,6.5,26.8v84.4c0,11,9,20,20,20h347c11,0,20-9,20-20V26.8c0-11-9-20-20-20H26.5Z"/>
  </g>
</svg>